<?xml version="1.0" encoding="UTF-8" standalone="no"?>
<!-- Generator: Adobe Illustrator 15.0.0, SVG Export Plug-In . SVG Version: 6.00 Build 0)  -->

<svg
   version="1.1"
   id="Слой_1"
   x="0px"
   y="0px"
   width="495.28003"
   height="123"
   viewBox="0 0 495.28 123"
   enable-background="new 0 0 595.28 841.89"
   xml:space="preserve"
   sodipodi:docname="logo11.svg"
   inkscape:version="1.1 (c68e22c387, 2021-05-23)"
   xmlns:inkscape="http://www.inkscape.org/namespaces/inkscape"
   xmlns:sodipodi="http://sodipodi.sourceforge.net/DTD/sodipodi-0.dtd"
   xmlns="http://www.w3.org/2000/svg"
   xmlns:svg="http://www.w3.org/2000/svg"><defs
   id="defs37" /><sodipodi:namedview
   id="namedview35"
   pagecolor="#ffffff"
   bordercolor="#666666"
   borderopacity="1.0"
   inkscape:pageshadow="2"
   inkscape:pageopacity="0.0"
   inkscape:pagecheckerboard="0"
   showgrid="false"
   width="506.28003px"
   inkscape:zoom="0.61765788"
   inkscape:cx="886.41304"
   inkscape:cy="162.71144"
   inkscape:window-width="1366"
   inkscape:window-height="705"
   inkscape:window-x="-8"
   inkscape:window-y="-8"
   inkscape:window-maximized="1"
   inkscape:current-layer="Слой_1" />

<g
   id="g24"
   transform="translate(-33.999404,-22.66627)">
	<path
   fill="#d10078"
   d="m 227.079,73.696 c -0.412,-0.153 -0.951,-0.262 -1.648,-0.33 -0.667,-0.064 -1.535,-0.095 -2.578,-0.095 -1.043,0 -1.917,0.031 -2.599,0.095 -0.715,0.068 -1.272,0.184 -1.699,0.358 -0.47,0.19 -0.818,0.462 -1.034,0.81 -0.203,0.324 -0.339,0.717 -0.397,1.125 l -6.875,29.991 -7.194,-30.2 c -0.097,-0.367 -0.238,-0.691 -0.419,-0.972 -0.204,-0.315 -0.54,-0.563 -0.995,-0.733 -0.407,-0.154 -0.936,-0.269 -1.619,-0.355 -0.657,-0.079 -1.52,-0.119 -2.566,-0.119 -1.044,0 -1.912,0.031 -2.579,0.095 -0.705,0.068 -1.243,0.187 -1.646,0.362 -0.432,0.188 -0.767,0.454 -0.994,0.792 -0.214,0.316 -0.373,0.701 -0.47,1.14 l -6.683,29.862 -7.128,-29.86 c -0.094,-0.428 -0.231,-0.801 -0.41,-1.113 -0.203,-0.355 -0.546,-0.633 -1.022,-0.825 -0.429,-0.174 -0.999,-0.29 -1.744,-0.358 -0.708,-0.064 -1.638,-0.095 -2.765,-0.095 -1.043,0 -1.925,0.031 -2.619,0.095 -0.724,0.067 -1.289,0.174 -1.727,0.329 -0.498,0.175 -0.84,0.416 -1.045,0.736 -0.206,0.316 -0.31,0.686 -0.31,1.102 0,0.374 0.037,0.838 0.109,1.377 0.074,0.548 0.236,1.279 0.496,2.227 l 9.919,38.399 c 0.125,0.567 0.319,1.047 0.575,1.425 0.272,0.406 0.697,0.723 1.262,0.941 0.525,0.204 1.217,0.343 2.116,0.428 0.871,0.079 2.021,0.121 3.418,0.121 1.358,0 2.498,-0.031 3.39,-0.095 0.917,-0.069 1.623,-0.202 2.161,-0.405 0.584,-0.221 1.013,-0.542 1.272,-0.952 0.243,-0.384 0.421,-0.864 0.546,-1.463 l 5.509,-24.499 5.99,24.498 c 0.124,0.567 0.318,1.047 0.574,1.425 0.272,0.406 0.697,0.723 1.262,0.941 0.525,0.204 1.225,0.343 2.138,0.428 0.884,0.079 2.027,0.121 3.396,0.121 1.358,0 2.491,-0.031 3.37,-0.095 0.905,-0.069 1.587,-0.203 2.086,-0.409 0.533,-0.219 0.94,-0.536 1.213,-0.938 0.253,-0.375 0.458,-0.863 0.613,-1.456 l 10.01,-38.429 c 0.226,-0.958 0.383,-1.707 0.469,-2.222 0.089,-0.542 0.133,-0.989 0.133,-1.371 0,-0.407 -0.094,-0.772 -0.278,-1.083 -0.19,-0.324 -0.512,-0.571 -0.984,-0.751 z"
   id="path4" />
	<path
   fill="#d10078"
   d="m 244.334,73.847 c -0.438,-0.188 -1.014,-0.332 -1.711,-0.432 -0.682,-0.095 -1.563,-0.144 -2.615,-0.144 -1.052,0 -1.932,0.048 -2.615,0.144 -0.699,0.1 -1.275,0.245 -1.711,0.432 -0.48,0.206 -0.818,0.455 -1.034,0.759 -0.226,0.321 -0.341,0.698 -0.341,1.118 v 42.368 c 0,0.421 0.115,0.797 0.341,1.118 0.219,0.31 0.56,0.552 1.045,0.741 0.436,0.17 0.994,0.296 1.708,0.379 0.691,0.081 1.567,0.123 2.606,0.123 1.04,0 1.916,-0.042 2.607,-0.123 0.712,-0.083 1.271,-0.209 1.708,-0.379 0.484,-0.189 0.826,-0.431 1.046,-0.741 0.225,-0.32 0.339,-0.696 0.339,-1.118 V 75.724 c 0,-0.42 -0.114,-0.797 -0.34,-1.118 -0.215,-0.305 -0.553,-0.552 -1.033,-0.759 z"
   id="path6" />
	<path
   fill="#d10078"
   d="m 240.05,54.609 c -2.514,0 -4.194,0.5 -5.136,1.53 -0.946,1.037 -1.405,2.787 -1.405,5.351 0,2.472 0.447,4.153 1.365,5.139 0.913,0.981 2.579,1.458 5.092,1.458 2.483,0 4.156,-0.492 5.111,-1.503 0.963,-1.021 1.431,-2.765 1.431,-5.33 0,-2.471 -0.455,-4.16 -1.387,-5.164 -0.927,-0.997 -2.585,-1.481 -5.071,-1.481 z"
   id="path8" />
	<path
   fill="#d10078"
   d="m 287.961,77.951 c -1.113,-1.686 -2.593,-3.037 -4.395,-4.017 -1.798,-0.978 -4.027,-1.473 -6.629,-1.473 -2.38,0 -4.7,0.657 -6.893,1.953 -1.935,1.147 -3.863,2.819 -5.74,4.98 v -3.767 c 0,-0.406 -0.093,-0.771 -0.278,-1.085 -0.185,-0.313 -0.468,-0.561 -0.869,-0.76 -0.362,-0.177 -0.846,-0.306 -1.479,-0.393 -0.601,-0.079 -1.366,-0.119 -2.275,-0.119 -0.882,0 -1.627,0.04 -2.215,0.119 -0.603,0.084 -1.109,0.215 -1.505,0.386 -0.45,0.197 -0.759,0.447 -0.945,0.766 -0.185,0.313 -0.279,0.677 -0.279,1.086 v 42.463 c 0,0.421 0.114,0.797 0.34,1.118 0.219,0.31 0.561,0.552 1.045,0.741 0.436,0.17 0.994,0.296 1.708,0.379 0.691,0.081 1.567,0.123 2.606,0.123 1.04,0 1.916,-0.042 2.607,-0.123 0.713,-0.083 1.271,-0.209 1.708,-0.379 0.484,-0.189 0.826,-0.431 1.045,-0.741 0.225,-0.32 0.34,-0.696 0.34,-1.118 V 90.02 c 1.425,-2.022 2.811,-3.586 4.121,-4.644 1.297,-1.049 2.591,-1.582 3.845,-1.582 0.996,0 1.875,0.217 2.614,0.642 0.734,0.422 1.341,1.028 1.805,1.801 0.475,0.794 0.845,1.763 1.1,2.881 0.256,1.133 0.387,2.73 0.387,4.742 v 24.23 c 0,0.421 0.115,0.797 0.341,1.118 0.218,0.309 0.552,0.551 1.02,0.739 0.423,0.172 0.984,0.298 1.713,0.383 0.704,0.079 1.588,0.121 2.627,0.121 1.01,0 1.879,-0.042 2.585,-0.121 0.729,-0.085 1.288,-0.211 1.713,-0.383 0.469,-0.189 0.802,-0.43 1.021,-0.739 0.226,-0.32 0.34,-0.696 0.34,-1.118 V 91.862 c 0,-3.1 -0.245,-5.795 -0.727,-8.011 -0.487,-2.24 -1.296,-4.226 -2.402,-5.9 z"
   id="path10" />
	<path
   fill="#d10078"
   d="m 331.862,78.543 c -1.465,-1.903 -3.361,-3.408 -5.637,-4.478 -2.267,-1.065 -5.027,-1.604 -8.207,-1.604 -3.011,0 -5.757,0.57 -8.163,1.7 -2.414,1.13 -4.494,2.797 -6.182,4.949 -1.684,2.149 -2.984,4.799 -3.866,7.874 -0.878,3.062 -1.323,6.545 -1.323,10.353 0,3.993 0.424,7.532 1.259,10.516 0.843,3.007 2.143,5.535 3.86,7.512 1.719,1.978 3.888,3.474 6.446,4.445 2.536,0.961 5.529,1.451 8.896,1.451 1.86,0 3.634,-0.139 5.271,-0.408 1.64,-0.273 3.109,-0.597 4.373,-0.962 1.27,-0.367 2.335,-0.751 3.166,-1.141 1.152,-0.537 1.478,-0.824 1.632,-1.013 0.206,-0.25 0.375,-0.516 0.504,-0.789 0.13,-0.282 0.229,-0.622 0.293,-1.013 0.058,-0.368 0.103,-0.808 0.131,-1.314 0.027,-0.5 0.043,-1.104 0.043,-1.813 0,-0.825 -0.021,-1.485 -0.065,-2.017 -0.045,-0.577 -0.132,-1.021 -0.263,-1.359 -0.146,-0.372 -0.344,-0.641 -0.586,-0.803 -0.568,-0.374 -1.399,-0.291 -2.621,0.255 -0.66,0.297 -1.507,0.628 -2.518,0.989 -1.002,0.358 -2.209,0.689 -3.592,0.987 -1.366,0.295 -2.982,0.445 -4.802,0.445 -1.768,0 -3.299,-0.263 -4.551,-0.783 -1.236,-0.511 -2.258,-1.263 -3.036,-2.235 -0.781,-0.974 -1.36,-2.181 -1.72,-3.582 -0.334,-1.303 -0.518,-2.762 -0.547,-4.345 h 22.426 c 1.121,0 2.021,-0.4 2.671,-1.192 0.644,-0.782 0.969,-1.976 0.969,-3.546 V 93.72 c 0,-3.013 -0.344,-5.844 -1.026,-8.416 -0.686,-2.59 -1.775,-4.865 -3.235,-6.761 z m -17.424,4.11 c 0.934,-0.537 2.055,-0.808 3.33,-0.808 2.552,0 4.379,0.882 5.586,2.699 1.158,1.743 1.733,4.163 1.713,7.196 h -14.989 c 0.076,-1.276 0.268,-2.494 0.568,-3.626 0.335,-1.257 0.821,-2.361 1.449,-3.28 0.618,-0.91 1.407,-1.644 2.343,-2.181 z"
   id="path12" />
	<path
   fill="#ffffff"
   d="m 371.689,97.114 c -0.893,-1.042 -1.922,-1.934 -3.058,-2.65 -1.119,-0.706 -2.265,-1.331 -3.407,-1.856 -1.137,-0.525 -2.275,-1.017 -3.382,-1.462 -1.08,-0.431 -2.061,-0.903 -2.914,-1.4 -0.823,-0.483 -1.492,-1.042 -1.988,-1.664 -0.469,-0.586 -0.696,-1.296 -0.696,-2.17 0,-0.566 0.101,-1.104 0.301,-1.597 0.196,-0.486 0.498,-0.92 0.897,-1.288 0.402,-0.372 0.935,-0.662 1.578,-0.866 0.664,-0.211 1.463,-0.317 2.372,-0.317 1.303,0 2.476,0.163 3.486,0.483 1.031,0.326 1.948,0.682 2.729,1.052 0.781,0.372 1.439,0.724 1.959,1.051 1.151,0.719 1.682,0.648 2.162,0.327 0.252,-0.165 0.446,-0.464 0.577,-0.886 0.11,-0.353 0.188,-0.824 0.231,-1.393 0.044,-0.549 0.063,-1.249 0.063,-2.137 0,-0.76 -0.02,-1.375 -0.063,-1.875 -0.043,-0.509 -0.094,-0.935 -0.152,-1.281 -0.063,-0.375 -0.162,-0.707 -0.293,-0.987 -0.14,-0.295 -0.359,-0.576 -0.674,-0.858 -0.294,-0.262 -0.752,-0.56 -1.4,-0.91 -0.639,-0.345 -1.425,-0.665 -2.334,-0.954 -0.916,-0.291 -1.944,-0.536 -3.056,-0.726 -1.122,-0.192 -2.297,-0.29 -3.487,-0.29 -2.386,0 -4.568,0.342 -6.489,1.019 -1.934,0.681 -3.598,1.652 -4.948,2.89 -1.359,1.24 -2.417,2.762 -3.141,4.515 -0.722,1.752 -1.087,3.699 -1.087,5.787 0,2.051 0.271,3.839 0.808,5.315 0.536,1.476 1.256,2.755 2.141,3.805 0.875,1.042 1.883,1.935 2.992,2.652 1.087,0.705 2.22,1.336 3.366,1.881 1.139,0.543 2.263,1.042 3.34,1.484 1.056,0.436 2.016,0.909 2.853,1.404 0.807,0.48 1.46,1.046 1.941,1.679 0.458,0.603 0.682,1.307 0.682,2.154 0,0.75 -0.129,1.418 -0.378,1.986 -0.25,0.568 -0.612,1.026 -1.104,1.397 -0.508,0.382 -1.118,0.681 -1.813,0.89 -0.705,0.209 -1.526,0.317 -2.442,0.317 -1.468,0 -2.794,-0.201 -3.939,-0.599 -1.168,-0.402 -2.203,-0.843 -3.081,-1.31 -0.884,-0.469 -1.631,-0.903 -2.218,-1.291 -1.243,-0.818 -1.892,-0.766 -2.402,-0.427 -0.252,0.168 -0.446,0.459 -0.593,0.898 -0.125,0.369 -0.217,0.854 -0.275,1.439 -0.059,0.568 -0.087,1.308 -0.087,2.268 0,1.447 0.087,2.521 0.266,3.282 0.189,0.804 0.46,1.39 0.824,1.783 0.342,0.37 0.856,0.746 1.571,1.15 0.691,0.392 1.559,0.777 2.58,1.146 1.031,0.371 2.204,0.681 3.483,0.918 1.286,0.24 2.66,0.363 4.082,0.363 2.353,0 4.567,-0.318 6.582,-0.943 2.028,-0.632 3.813,-1.595 5.307,-2.862 1.503,-1.277 2.682,-2.883 3.505,-4.78 0.822,-1.896 1.238,-4.109 1.238,-6.58 0,-1.988 -0.278,-3.738 -0.829,-5.201 -0.551,-1.448 -1.285,-2.721 -2.186,-3.775 z"
   id="path14"
   style="fill:#ffffff;fill-opacity:1;stroke:#000000;stroke-opacity:1" />
	<path
   fill="#ffffff"
   d="m 403.844,84.176 c 0.487,0 1.157,-0.241 1.592,-1.396 0.304,-0.809 0.45,-2.09 0.45,-3.916 0,-0.933 -0.035,-1.736 -0.106,-2.388 -0.076,-0.684 -0.189,-1.214 -0.347,-1.626 -0.175,-0.452 -0.396,-0.773 -0.671,-0.98 -0.276,-0.21 -0.6,-0.315 -0.959,-0.315 h -7.756 v -9.018 c 0,-0.416 -0.111,-0.796 -0.332,-1.13 -0.213,-0.32 -0.555,-0.588 -1.017,-0.793 -0.433,-0.191 -0.996,-0.326 -1.725,-0.41 -0.706,-0.081 -1.589,-0.122 -2.627,-0.122 -1.011,0 -1.879,0.041 -2.586,0.122 -0.728,0.084 -1.297,0.217 -1.741,0.408 -0.488,0.209 -0.825,0.476 -1.028,0.81 -0.201,0.33 -0.302,0.705 -0.302,1.115 v 9.018 h -4.056 c -0.359,0 -0.682,0.105 -0.96,0.315 -0.273,0.208 -0.5,0.537 -0.672,0.981 -0.157,0.41 -0.27,0.942 -0.346,1.627 -0.07,0.651 -0.106,1.454 -0.106,2.387 0,1.828 0.147,3.108 0.451,3.916 0.435,1.154 1.104,1.396 1.591,1.396 h 4.098 v 21.301 c 0,2.635 0.246,4.949 0.729,6.884 0.491,1.962 1.271,3.618 2.318,4.918 1.05,1.305 2.394,2.284 3.993,2.91 1.578,0.617 3.461,0.929 5.598,0.929 0.799,0 1.599,-0.048 2.377,-0.145 0.775,-0.096 1.514,-0.235 2.191,-0.415 0.676,-0.178 1.277,-0.395 1.791,-0.643 0.548,-0.266 0.956,-0.565 1.249,-0.915 0.306,-0.365 0.537,-0.947 0.709,-1.781 0.161,-0.776 0.241,-1.893 0.241,-3.315 0,-0.906 -0.035,-1.664 -0.107,-2.254 -0.075,-0.604 -0.155,-1.068 -0.242,-1.417 -0.114,-0.447 -0.285,-0.75 -0.529,-0.928 -0.443,-0.32 -0.927,-0.304 -1.505,-0.037 -0.234,0.11 -0.522,0.234 -0.865,0.374 -0.333,0.136 -0.72,0.258 -1.148,0.364 -0.42,0.104 -0.9,0.158 -1.428,0.158 -1.521,0 -2.537,-0.5 -3.108,-1.526 -0.601,-1.079 -0.905,-2.751 -0.905,-4.971 V 84.176 Z"
   id="path16"
   style="stroke:#000000;stroke-opacity:1" />
	<path
   fill="#ffffff"
   d="m 445.75,78.701 c -1.648,-2.045 -3.761,-3.612 -6.276,-4.665 -2.501,-1.045 -5.491,-1.574 -8.886,-1.574 -3.484,0 -6.568,0.602 -9.17,1.792 -2.61,1.196 -4.818,2.909 -6.561,5.093 -1.741,2.18 -3.064,4.83 -3.932,7.876 -0.864,3.029 -1.302,6.417 -1.302,10.066 0,3.771 0.402,7.178 1.194,10.129 0.8,2.974 2.046,5.516 3.706,7.554 1.661,2.044 3.778,3.622 6.293,4.689 2.5,1.061 5.477,1.599 8.846,1.599 3.482,0 6.575,-0.604 9.19,-1.793 2.623,-1.193 4.84,-2.916 6.583,-5.119 1.741,-2.196 3.057,-4.847 3.91,-7.877 0.852,-3.015 1.281,-6.393 1.281,-10.04 0,-3.802 -0.401,-7.226 -1.194,-10.177 -0.799,-2.973 -2.038,-5.514 -3.682,-7.553 z m -11.722,31.151 c -1.117,0.617 -2.458,0.931 -3.987,0.931 -1.664,0 -3.07,-0.344 -4.182,-1.019 -1.107,-0.67 -1.996,-1.631 -2.643,-2.855 -0.659,-1.25 -1.146,-2.746 -1.443,-4.449 -0.302,-1.719 -0.455,-3.635 -0.455,-5.694 0,-2.205 0.187,-4.195 0.557,-5.914 0.365,-1.698 0.918,-3.169 1.645,-4.374 0.714,-1.183 1.639,-2.092 2.746,-2.704 1.116,-0.615 2.443,-0.929 3.944,-0.929 1.688,0 3.102,0.348 4.198,1.036 1.099,0.69 1.988,1.662 2.648,2.886 0.673,1.25 1.158,2.746 1.441,4.442 0.287,1.725 0.435,3.642 0.435,5.698 0,2.211 -0.181,4.201 -0.537,5.918 -0.352,1.698 -0.896,3.159 -1.62,4.344 -0.712,1.167 -1.636,2.07 -2.747,2.683 z"
   id="path18"
   style="stroke:#000000;stroke-opacity:1" />
	<path
   fill="#ffffff"
   d="m 481.914,75.281 c -0.063,-0.367 -0.131,-0.652 -0.214,-0.876 -0.091,-0.25 -0.239,-0.479 -0.436,-0.686 -0.196,-0.201 -0.479,-0.378 -0.866,-0.542 -0.351,-0.148 -0.767,-0.283 -1.233,-0.398 -0.457,-0.114 -0.911,-0.197 -1.349,-0.248 -1.369,-0.151 -2.481,-0.063 -3.677,0.3 -0.824,0.25 -1.656,0.695 -2.476,1.324 -0.803,0.617 -1.659,1.463 -2.545,2.516 -0.661,0.781 -1.358,1.73 -2.084,2.831 v -3.875 c 0,-0.405 -0.093,-0.77 -0.276,-1.084 -0.185,-0.313 -0.468,-0.562 -0.869,-0.761 -0.363,-0.178 -0.848,-0.306 -1.479,-0.393 -0.601,-0.079 -1.366,-0.119 -2.275,-0.119 -0.882,0 -1.627,0.04 -2.215,0.119 -0.603,0.084 -1.109,0.215 -1.505,0.386 -0.45,0.197 -0.759,0.447 -0.947,0.767 -0.184,0.312 -0.276,0.678 -0.276,1.085 v 42.463 c 0,0.421 0.114,0.797 0.34,1.118 0.22,0.311 0.561,0.552 1.045,0.741 0.435,0.17 0.993,0.294 1.708,0.379 0.691,0.081 1.567,0.123 2.606,0.123 1.04,0 1.917,-0.042 2.607,-0.123 0.712,-0.083 1.271,-0.209 1.708,-0.379 0.486,-0.19 0.828,-0.432 1.045,-0.741 0.226,-0.32 0.34,-0.696 0.34,-1.118 V 91.758 c 0.749,-1.327 1.461,-2.458 2.118,-3.367 0.664,-0.922 1.308,-1.667 1.915,-2.218 0.598,-0.542 1.179,-0.943 1.729,-1.197 1.011,-0.462 2.079,-0.438 2.912,-0.217 0.408,0.111 0.783,0.225 1.126,0.347 0.346,0.126 0.658,0.244 0.937,0.354 0.767,0.305 1.393,0.239 1.827,-0.139 0.251,-0.22 0.441,-0.574 0.58,-1.085 0.122,-0.447 0.21,-1.038 0.269,-1.808 0.059,-0.741 0.087,-1.701 0.087,-2.85 0,-1.15 -0.016,-2.061 -0.043,-2.735 -0.03,-0.699 -0.074,-1.211 -0.134,-1.562 z"
   id="path20"
   style="stroke:#000000;stroke-opacity:1" />
	<path
   fill="#ffffff"
   d="m 521.263,85.304 c -0.687,-2.59 -1.775,-4.865 -3.235,-6.761 -1.466,-1.903 -3.362,-3.408 -5.637,-4.478 -2.268,-1.065 -5.028,-1.604 -8.206,-1.604 -3.011,0 -5.757,0.57 -8.165,1.7 -2.414,1.131 -4.494,2.797 -6.181,4.949 -1.684,2.149 -2.984,4.797 -3.867,7.874 -0.878,3.063 -1.322,6.547 -1.322,10.353 0,3.996 0.424,7.534 1.258,10.516 0.845,3.009 2.144,5.536 3.86,7.512 1.719,1.978 3.887,3.474 6.446,4.445 2.537,0.961 5.53,1.451 8.896,1.451 1.86,0 3.635,-0.139 5.271,-0.408 1.643,-0.273 3.112,-0.597 4.373,-0.962 1.271,-0.367 2.336,-0.751 3.167,-1.141 1.152,-0.537 1.478,-0.824 1.631,-1.013 0.206,-0.25 0.376,-0.516 0.505,-0.789 0.13,-0.282 0.229,-0.622 0.292,-1.013 0.059,-0.368 0.104,-0.808 0.132,-1.314 0.027,-0.5 0.042,-1.104 0.042,-1.813 0,-0.825 -0.021,-1.485 -0.063,-2.017 -0.046,-0.577 -0.133,-1.021 -0.264,-1.359 -0.147,-0.372 -0.344,-0.641 -0.587,-0.803 -0.567,-0.374 -1.399,-0.291 -2.62,0.255 -0.665,0.297 -1.512,0.63 -2.519,0.989 -1.001,0.358 -2.209,0.689 -3.591,0.987 -1.367,0.295 -2.982,0.445 -4.803,0.445 -1.768,0 -3.299,-0.263 -4.55,-0.783 -1.237,-0.511 -2.258,-1.263 -3.036,-2.235 -0.781,-0.975 -1.36,-2.181 -1.721,-3.582 -0.333,-1.303 -0.518,-2.765 -0.547,-4.345 h 22.426 c 1.122,0 2.021,-0.4 2.671,-1.192 0.645,-0.782 0.97,-1.976 0.97,-3.546 V 93.72 c 0,-3.013 -0.345,-5.845 -1.026,-8.416 z m -20.66,-2.651 c 0.934,-0.537 2.055,-0.808 3.329,-0.808 2.552,0 4.379,0.882 5.586,2.699 1.158,1.743 1.733,4.163 1.714,7.196 h -14.989 c 0.075,-1.272 0.267,-2.491 0.568,-3.626 0.335,-1.256 0.822,-2.36 1.448,-3.28 0.618,-0.91 1.406,-1.644 2.344,-2.181 z"
   id="path22"
   style="stroke:#000000;stroke-opacity:1" />
</g>
<path
   fill="#ffffff"
   d="m 60.636596,8.2537304 c -29.782,0 -54.0110004,24.2279996 -54.0110004,54.0079996 0,29.783 24.2290004,54.014 54.0110004,54.014 29.782,0 54.011004,-24.23 54.011004,-54.014 -10e-4,-29.78 -24.230004,-54.0079996 -54.011004,-54.0079996 z"
   id="path26"
   style="stroke:#000000;stroke-opacity:1" />
<path
   fill="#d10078"
   d="m 110.3036,61.38173 c -31.326004,14.744 -63.569004,-11.072 -99.325004,-0.259 -0.009,0.38 -0.029,0.757 -0.029,1.139 0,9.955 2.953,19.228 8.013,27.01 29.348,-11.26 75.538,0.613 90.826004,-19.737 0.35,-2.375 0.537,-4.803 0.537,-7.273 0,-0.295 -0.017,-0.586 -0.022,-0.88 z"
   id="path28" />
<path
   fill="#b11f74"
   d="m 109.8356,69.16673 c -15.040004,20.744 -61.442004,8.754 -90.940004,20 1.25,1.932 2.628,3.771 4.126,5.507 23.555,10.033 51.275,7.045 70.47,4.822 8.680004,-7.67 14.666004,-18.315 16.344004,-30.329 z"
   id="path30" />
<path
   fill="#5d144c"
   d="m 60.636596,111.95473 c 12.576,0 24.068,-4.706 32.83,-12.437 -19.169,2.22 -46.849,5.208 -70.39,-4.779 9.118,10.533 22.569,17.216 37.56,17.216 z"
   id="path32" />
</svg>
